<svg width="169" height="158" viewBox="0 0 169 158" fill="none" xmlns="http://www.w3.org/2000/svg">
<path d="M23.5298 56.0641L92.639 79.1005C93.1046 79.2557 93.3373 79.3333 93.5043 79.5002C93.6712 79.6671 93.7488 79.8999 93.904 80.3654L116.94 149.475C117.725 151.828 118.117 153.004 118.838 153.004C119.558 153.004 119.951 151.828 120.735 149.475L168.073 7.46146V7.46139C168.625 5.80564 168.901 4.97776 168.464 4.54075C168.027 4.10374 167.199 4.3797 165.543 4.93163L23.5298 52.2694C21.1766 53.0538 20 53.446 20 54.1667C20 54.8875 21.1766 55.2797 23.5298 56.0641Z" fill="#A7DFFF"/>
<path d="M7.52975 56.0641L8.79467 52.2694H8.79466L7.52975 56.0641ZM76.5269 79.0632L75.262 82.8579L77.6073 83.6397L79.3554 81.8916L76.5269 79.0632ZM7.52975 52.2694L8.79466 56.0641H8.79466L7.52975 52.2694ZM149.543 4.93166L150.808 8.72639V8.72639L149.543 4.93166ZM152.464 4.54078L149.635 7.36919L149.635 7.36921L152.464 4.54078ZM152.073 7.46142L148.278 6.19649L148.073 6.8123V7.46142H152.073ZM152.073 7.46148L155.867 8.72639L156.073 8.11059V7.46148H152.073ZM104.735 149.475L100.94 148.21L100.94 148.21L104.735 149.475ZM100.94 149.475L104.735 148.21L100.94 149.475ZM77.9412 80.4773L75.1127 77.6489L73.3647 79.397L74.1464 81.7422L77.9412 80.4773ZM111.961 46.4571L109.133 43.6287L109.133 43.6287L111.961 46.4571ZM111.961 45.0429L109.133 47.8713L109.133 47.8713L111.961 45.0429ZM110.547 45.0429L107.719 42.2145L107.719 42.2145L110.547 45.0429ZM6.26484 59.8589L75.262 82.8579L77.7918 75.2684L8.79467 52.2694L6.26484 59.8589ZM-7.58171e-05 54.1668C-7.58171e-05 57.1696 2.58487 58.4221 3.13255 58.6885C4.01642 59.1185 5.20948 59.5071 6.26485 59.8589L8.79466 52.2694C8.19306 52.0689 7.72586 51.9129 7.33652 51.7732C6.93744 51.63 6.73035 51.5424 6.63221 51.4946C6.49407 51.4274 6.75342 51.526 7.08022 51.8602C7.26707 52.0512 7.508 52.3513 7.69917 52.7736C7.89758 53.212 7.99992 53.6895 7.99992 54.1668H-7.58171e-05ZM6.26484 48.4746C5.20948 48.8264 4.01641 49.215 3.13254 49.645C2.58485 49.9114 -7.58171e-05 51.1639 -7.58171e-05 54.1668H7.99992C7.99992 54.644 7.89758 55.1215 7.69918 55.5599C7.50801 55.9822 7.26708 56.2823 7.08023 56.4733C6.75343 56.8075 6.49407 56.9061 6.63222 56.8389C6.73036 56.7911 6.93744 56.7035 7.33652 56.5603C7.72585 56.4206 8.19306 56.2646 8.79466 56.0641L6.26484 48.4746ZM148.278 1.13693L6.26484 48.4746L8.79466 56.0641L150.808 8.72639L148.278 1.13693ZM155.292 1.71237C153.627 0.0476389 151.558 0.285194 150.76 0.427192C149.932 0.574353 148.977 0.904001 148.278 1.13693L150.808 8.72639C151.237 8.58341 151.545 8.48099 151.802 8.40267C152.067 8.32195 152.161 8.3035 152.161 8.30354C152.152 8.30504 152.082 8.3174 151.967 8.32269C151.852 8.32798 151.657 8.32782 151.411 8.28749C151.157 8.24607 150.848 8.16211 150.519 8.00082C150.185 7.83692 149.887 7.62062 149.635 7.36919L155.292 1.71237ZM155.867 8.72635C156.1 8.0276 156.43 7.07191 156.577 6.24467C156.719 5.44642 156.957 3.37706 155.292 1.71235L149.635 7.36921C149.384 7.11779 149.167 6.81933 149.004 6.48514C148.842 6.15626 148.758 5.84731 148.717 5.59388C148.677 5.34714 148.676 5.15285 148.682 5.03729C148.687 4.92191 148.699 4.8519 148.701 4.84348C148.701 4.84326 148.682 4.93736 148.602 5.20231C148.523 5.45939 148.421 5.76755 148.278 6.19649L155.867 8.72635ZM156.073 7.46148V7.46142H148.073V7.46148H156.073ZM108.53 150.74L155.867 8.72639L148.278 6.19657L100.94 148.21L108.53 150.74ZM102.838 157.004C105.84 157.004 107.093 154.42 107.359 153.872C107.789 152.988 108.178 151.795 108.53 150.74L100.94 148.21C100.74 148.811 100.584 149.279 100.444 149.668C100.301 150.067 100.213 150.274 100.166 150.372C100.098 150.51 100.197 150.251 100.531 149.924C100.722 149.737 101.022 149.496 101.445 149.305C101.883 149.107 102.36 149.004 102.838 149.004V157.004ZM97.1456 150.74C97.4973 151.795 97.8859 152.988 98.3159 153.872C98.5823 154.42 99.8348 157.004 102.838 157.004V149.004C103.315 149.004 103.792 149.107 104.231 149.305C104.653 149.496 104.953 149.737 105.144 149.924C105.478 150.251 105.577 150.51 105.51 150.372C105.462 150.274 105.374 150.067 105.231 149.668C105.092 149.279 104.936 148.811 104.735 148.21L97.1456 150.74ZM74.1464 81.7422L97.1456 150.74L104.735 148.21L81.7359 79.2124L74.1464 81.7422ZM109.133 43.6287L75.1127 77.6489L80.7696 83.3058L114.79 49.2855L109.133 43.6287ZM109.133 47.8713C107.961 46.6998 107.961 44.8002 109.133 43.6287L114.79 49.2856C116.742 47.3329 116.742 44.1671 114.79 42.2144L109.133 47.8713ZM113.376 47.8713C112.204 49.0429 110.305 49.0429 109.133 47.8713L114.79 42.2145C112.837 40.2618 109.671 40.2619 107.719 42.2145L113.376 47.8713ZM79.3554 81.8916L113.376 47.8713L107.719 42.2145L73.6985 76.2347L79.3554 81.8916Z" fill="black"/>
</svg>
