<svg width="153" height="141" viewBox="0 0 153 141" fill="none" xmlns="http://www.w3.org/2000/svg">
<path d="M122.336 9.91422L37.8918 94.3583C37.6971 94.5529 37.5998 94.6503 37.5328 94.7686C37.4659 94.8868 37.4325 95.0204 37.3657 95.2874L28.1189 132.275C28.0286 132.636 27.9835 132.816 28.0836 132.917C28.1837 133.017 28.3642 132.971 28.7252 132.881L65.7127 123.634L65.7127 123.634C65.9797 123.568 66.1133 123.534 66.2315 123.467C66.3498 123.4 66.4471 123.303 66.6417 123.108L66.6418 123.108L151.086 38.6642C151.753 37.9975 152.086 37.6642 152.086 37.25C152.086 36.8358 151.753 36.5025 151.086 35.8358L125.164 9.91421L125.164 9.91418C124.498 9.24753 124.164 8.91421 123.75 8.91421C123.336 8.91421 123.003 9.24755 122.336 9.91422Z" fill="#A7DFFF"/>
<path d="M14.0521 92.7977L14.052 92.7978C13.6834 93.4489 13.5233 94.1506 13.4904 94.2946C13.488 94.3054 13.4862 94.313 13.4852 94.3173L4.23829 131.305C4.23735 131.309 4.23574 131.315 4.23355 131.323C4.20658 131.427 4.09127 131.87 4.04884 132.304C3.99811 132.823 3.93017 134.42 5.25513 135.745C6.58009 137.07 8.17747 137.002 8.69594 136.951C9.12962 136.909 9.57292 136.794 9.67686 136.767C9.68533 136.764 9.69155 136.763 9.69532 136.762L46.6828 127.515L46.6829 127.515L46.683 127.515C46.6872 127.514 46.6949 127.512 46.7057 127.51C46.8493 127.477 47.5512 127.317 48.2023 126.948L48.2024 126.948C48.8535 126.579 49.3519 126.06 49.4539 125.954C49.4616 125.946 49.467 125.94 49.4701 125.937L49.4702 125.937L49.4702 125.937L133.914 41.4926C133.935 41.472 133.957 41.4499 133.981 41.4264C134.245 41.1627 134.678 40.7314 135.016 40.2888C135.454 39.7145 136.086 38.6833 136.086 37.25C136.086 35.8167 135.454 34.7855 135.016 34.2112C134.678 33.7686 134.245 33.3374 133.981 33.0736C133.957 33.0502 133.935 33.028 133.914 33.0073L107.993 7.08579L107.993 7.08575C107.972 7.06504 107.95 7.04281 107.926 7.01925C107.663 6.75458 107.231 6.32177 106.789 5.98411C106.215 5.54597 105.183 4.91421 103.75 4.91421C102.317 4.91421 101.286 5.54599 100.711 5.98413C100.269 6.3218 99.8375 6.75464 99.5738 7.01932C99.5503 7.04287 99.5281 7.06509 99.5074 7.08579L15.0634 91.5299C15.0603 91.533 15.0546 91.5384 15.0466 91.5461C14.9401 91.6482 14.4207 92.1466 14.0521 92.7977Z" stroke="black" stroke-width="8"/>
<path d="M79.7917 22.875L108.542 3.70837L137.292 32.4584L118.125 61.2084L79.7917 22.875Z" fill="black"/>
</svg>
