<svg width="223" height="239" viewBox="0 0 223 239" fill="none" xmlns="http://www.w3.org/2000/svg">
<path d="M29.0333 106.855C23.357 106.855 18.6462 105.669 14.901 103.306C11.1605 100.939 8.33873 97.6297 6.44973 93.3687C4.55605 89.1076 3.39359 84.1434 2.96704 78.4619L11.6152 75.879C12.0464 80.1823 12.8198 84.073 13.9401 87.5607C15.0557 91.0436 16.8228 93.7999 19.2321 95.8203C21.6414 97.8407 24.9506 98.8532 29.1693 98.8532C33.8144 98.8532 37.4283 97.6485 40.0111 95.239C42.5938 92.8296 43.8828 88.9998 43.8828 83.7543C43.8828 79.1088 42.7438 75.1056 40.461 71.7539C38.1783 68.3975 35.0612 64.8724 31.1051 61.1739L12.6464 43.492C9.37463 40.3091 6.97003 37.0184 5.41852 33.6198C3.8717 30.2213 3.0936 26.4993 3.0936 22.4585C3.0936 15.2302 5.24509 9.68 9.54806 5.81269C13.851 1.936 19.5696 0 26.7131 0C30.4114 0 33.7441 0.473453 36.7159 1.42036C39.6829 2.36726 42.2188 3.89544 44.3281 6.0002C46.4374 8.10964 48.092 10.8379 49.2967 14.1942C50.5013 17.5506 51.3169 21.6382 51.7481 26.4524L43.3578 28.6509C43.011 24.2633 42.3032 20.4991 41.2298 17.3584C40.1517 14.2176 38.4736 11.8316 36.1956 10.1956C33.9175 8.56434 30.7536 7.744 26.7084 7.744C22.4054 7.744 18.8805 8.86435 16.1291 11.1004C13.3729 13.3411 11.9995 16.824 11.9995 21.5538C11.9995 24.3945 12.5339 26.9728 13.612 29.2978C14.6854 31.6229 16.5978 34.1167 19.354 36.784L37.808 54.208C41.9376 58.08 45.5046 62.3833 48.5186 67.1131C51.5278 71.8476 53.0372 77.1775 53.0372 83.1168C53.0372 88.3669 52.0247 92.7546 50.0045 96.2797C47.9842 99.8095 45.1671 102.453 41.5532 104.216C37.9393 105.974 33.7675 106.855 29.0333 106.855Z" fill="white"/>
<path d="M62.6135 105.566V30.9713H71.3882V38.584C73.8819 35.6589 76.6333 33.4417 79.6473 31.9369C82.6566 30.4322 85.7549 29.6775 88.9376 29.6775C91.5203 29.6775 93.9062 30.3666 96.0999 31.7447C98.2935 33.1229 99.8638 35.6589 100.811 39.3575C103.393 36.1746 106.229 33.7651 109.328 32.1291C112.426 30.4978 115.693 29.6775 119.133 29.6775C121.285 29.6775 123.329 30.1931 125.264 31.2244C127.2 32.2557 128.771 34.0229 129.975 36.5168C131.18 39.0153 131.78 42.4092 131.78 46.7124V105.566H123.005V46.9749C123.005 42.5873 122.297 39.6809 120.877 38.2653C119.457 36.8449 117.671 36.1371 115.519 36.1371C113.11 36.1371 110.701 36.8262 108.292 38.2043C105.882 39.5825 103.6 41.4763 101.453 43.8811C101.537 44.3123 101.603 44.7624 101.645 45.2358C101.687 45.7093 101.711 46.2015 101.711 46.7218V105.566H92.8047V46.9749C92.8047 42.5873 92.0969 39.6809 90.6766 38.2653C89.2563 36.8449 87.4705 36.1371 85.3237 36.1371C82.9987 36.1371 80.6316 36.8262 78.227 38.2043C75.8177 39.5825 73.535 41.4294 71.3882 43.7545V105.566H62.6135Z" fill="white"/>
<path d="M156.013 106.729C152.999 106.729 150.379 105.974 148.143 104.469C145.907 102.964 144.164 100.944 142.917 98.4033C141.67 95.8672 141.047 93.0921 141.047 90.078C141.047 86.295 141.581 83.0652 142.659 80.398C143.732 77.7307 145.453 75.3447 147.82 73.2352C150.187 71.1258 153.281 69.0632 157.11 67.0428C160.935 65.0225 165.604 62.763 171.111 60.2692V54.9768C171.111 50.4157 170.83 46.825 170.272 44.1999C169.71 41.5748 168.768 39.7044 167.432 38.5841C166.096 37.4684 164.226 36.9059 161.816 36.9059C159.838 36.9059 158.076 37.295 156.524 38.0684C154.977 38.8419 153.726 40.1544 152.784 42.0061C151.837 43.8577 151.363 46.4172 151.363 49.6844V52.2673L142.073 52.1408C142.158 44.5702 143.77 38.9591 146.91 35.298C150.051 31.6417 155.188 29.8135 162.332 29.8135C169.044 29.8135 173.75 31.8151 176.464 35.8137C179.173 39.8122 180.528 46.0328 180.528 54.4612V90.7249C180.528 92.014 180.57 93.6734 180.659 95.6938C180.744 97.7142 180.833 99.6314 180.917 101.436C181.001 103.241 181.091 104.619 181.175 105.566H172.789C172.616 103.935 172.358 102.102 172.016 100.081C171.669 98.0611 171.453 96.4485 171.369 95.2438C170.338 98.2579 168.51 100.921 165.885 103.246C163.26 105.566 159.969 106.729 156.013 106.729ZM158.985 98.7267C160.879 98.7267 162.599 98.2533 164.146 97.3063C165.693 96.3594 167.071 95.2203 168.275 93.8843C169.48 92.5531 170.427 91.1983 171.116 89.8202V66.5881C167.418 68.4819 164.254 70.2023 161.633 71.7492C159.008 73.2962 156.88 74.8056 155.245 76.2681C153.609 77.7307 152.404 79.3854 151.631 81.2371C150.857 83.0887 150.468 85.2591 150.468 87.7529C150.468 91.7093 151.326 94.5266 153.051 96.2047C154.766 97.8876 156.745 98.7267 158.985 98.7267Z" fill="white"/>
<path d="M191.993 105.566V1.03125H201.415V105.566H191.993Z" fill="white"/>
<path d="M213.578 105.566V1.03125H223V105.566H213.578Z" fill="white"/>
<path d="M19.7431 237.837V140.92H0V133.307H48.7811V140.92H29.5537V237.842H19.7431V237.837Z" fill="white"/>
<path d="M61.076 239C58.0621 239 55.4419 238.245 53.206 236.741C50.9701 235.236 49.2265 233.215 47.9796 230.675C46.7328 228.139 46.1094 225.364 46.1094 222.349C46.1094 218.567 46.6437 215.337 47.7218 212.669C48.7952 210.002 50.5155 207.616 52.8826 205.507C55.2497 203.397 58.3433 201.335 62.1729 199.31C65.9977 197.289 70.6663 195.03 76.1739 192.536V187.244C76.1739 182.683 75.8927 179.092 75.3349 176.467C74.7724 173.842 73.8303 171.971 72.4944 170.856C71.1585 169.74 69.2882 169.177 66.879 169.177C64.9009 169.177 63.1385 169.567 61.587 170.34C60.0401 171.113 58.7886 172.426 57.8465 174.278C56.8996 176.129 56.4262 178.689 56.4262 181.956V184.539L47.1359 184.408C47.2203 176.837 48.8327 171.226 51.9732 167.565C55.1137 163.908 60.2511 162.08 67.3946 162.08C74.1068 162.08 78.8129 164.082 81.5269 168.081C84.2362 172.079 85.5908 178.3 85.5908 186.728V222.992C85.5908 224.281 85.633 225.94 85.7221 227.961C85.8064 229.981 85.8955 231.898 85.9799 233.703C86.0642 235.512 86.1533 236.886 86.2377 237.833H77.852C77.6786 236.201 77.4208 234.369 77.0786 232.348C76.7317 230.328 76.5161 228.715 76.4317 227.511C75.4005 230.525 73.5725 233.187 70.9476 235.512C68.3227 237.837 65.0322 239 61.076 239ZM64.0431 230.998C65.9368 230.998 67.6571 230.525 69.2039 229.578C70.7507 228.631 72.1288 227.492 73.3334 226.156C74.5381 224.825 75.4849 223.47 76.1739 222.092V198.86C72.4756 200.753 69.3117 202.474 66.6915 204.021C64.0666 205.568 61.9385 207.077 60.3026 208.54C58.6667 210.002 57.4621 211.657 56.6887 213.509C55.9153 215.36 55.5262 217.531 55.5262 220.024C55.5262 223.981 56.384 226.798 58.109 228.476C59.8292 230.159 61.8073 230.998 64.0431 230.998Z" fill="white"/>
<path d="M97.0513 237.837V133.303H106.473V237.837H97.0513Z" fill="white"/>
<path d="M118.097 237.837V133.303H127.519V199.638L152.423 163.243H162.36L143.522 192.02L161.587 237.833H152.038L136.294 197.308L127.519 209.571V237.833H118.097V237.837Z" fill="white"/>
</svg>
