<svg width="100" height="139" viewBox="0 0 100 139" fill="none" xmlns="http://www.w3.org/2000/svg">
<path d="M19.6758 90.9371C15.8258 90.9376 12.3439 90.938 9.65201 90.5384C6.82233 90.1184 3.27495 89.0415 1.23812 85.4986C-0.798713 81.9558 0.0557444 78.3486 1.11677 75.6922C2.12616 73.1651 3.87881 70.1566 5.81671 66.8302L6.01458 66.4905L40.262 7.68733L40.4046 7.44241C41.2944 5.91365 42.1986 4.36018 43.0325 3.25604C43.4666 2.68128 44.184 1.80787 45.2038 1.12254C46.3779 0.33342 48.2372 -0.36946 50.4109 0.217274C52.5845 0.804012 53.8374 2.34699 54.4549 3.61974C54.9912 4.72508 55.1716 5.84085 55.2575 6.55596C55.4224 7.92966 55.4219 9.72701 55.4214 11.4958V11.4959L55.4214 11.7793V48.0629H79.9308L80.324 48.0629C84.174 48.0624 87.656 48.062 90.348 48.4616C93.1777 48.8816 96.7251 49.9585 98.7619 53.5014C100.799 57.0442 99.9443 60.6513 98.8832 63.3077C97.8739 65.8347 96.1214 68.843 94.1836 72.1692L94.1833 72.1697L59.738 131.313L59.5953 131.558L59.5953 131.558C58.7055 133.087 57.8014 134.64 56.9675 135.744C56.5334 136.319 55.816 137.192 54.7962 137.877C53.6221 138.667 51.7628 139.369 49.5891 138.783C47.4155 138.196 46.1626 136.653 45.5451 135.38C45.0088 134.275 44.8284 133.159 44.7425 132.444C44.5776 131.07 44.5781 129.273 44.5786 127.504L44.5786 127.221V90.9371L19.6762 90.9371H19.6758Z" fill="#A7DFFF"/>
</svg>
