<svg width="95" height="97" viewBox="0 0 95 97" fill="none" xmlns="http://www.w3.org/2000/svg">
<path d="M42.0342 13.9722C48.6287 4.33078 51.926 -0.48992 55.5827 0.319203C59.2395 1.12833 60.1951 6.89008 62.1065 18.4136L62.1955 18.9502C63.2753 25.4604 63.8153 28.7155 65.8617 31.0742C67.9081 33.4329 71.0586 34.4314 77.3596 36.4283L78.4987 36.7894C88.8111 40.0576 93.9673 41.6918 94.3538 45.2812C94.7402 48.8705 90.0488 51.5535 80.666 56.9194L77.5345 58.7102C72.7848 61.4265 70.4099 62.7847 68.9674 64.9343C68.6984 65.3353 68.4559 65.7534 68.2416 66.1861C67.0929 68.5056 67.0955 71.2388 67.1009 76.7052L67.1025 78.4067C67.1123 88.4528 67.1172 93.4759 64.8021 95.1297C63.937 95.7477 62.9116 96.1037 61.8487 96.1549C59.0042 96.2919 55.8808 92.3513 49.6338 84.47C45.5319 79.2949 43.4809 76.7073 40.7106 75.6143C39.621 75.1844 38.47 74.9297 37.3007 74.8598C34.3279 74.682 31.3767 76.1628 25.4744 79.1242C16.4856 83.6343 11.9912 85.8893 9.47009 84.565C8.528 84.0702 7.7485 83.3149 7.22489 82.3896C5.82364 79.9134 7.94723 75.3613 12.1944 66.2572L12.9138 64.7152C15.2248 59.7613 16.3803 57.2844 16.3173 54.6968C16.3056 54.2141 16.2622 53.7327 16.1874 53.2556C15.7864 50.6981 14.2063 48.4648 11.0459 43.9983L8.96224 41.0534C2.71911 32.23 -0.402449 27.8183 1.46223 24.727C3.32691 21.6358 8.6912 22.3295 19.4198 23.717L20.6049 23.8702C27.1602 24.718 30.4378 25.1419 33.2883 23.8667C36.1387 22.5915 38.0015 19.8681 41.7271 14.4211L42.0342 13.9722Z" fill="#A7DFFF"/>
</svg>
