<svg width="122" height="106" viewBox="0 0 122 106" fill="none" xmlns="http://www.w3.org/2000/svg">
<rect width="24" height="24" transform="translate(49.0837 28) rotate(2.58818)" fill="#A7DFFF"/>
<path d="M8.81769 54.2705L56.3227 105.018L56.3228 105.018C56.8653 105.598 57.1366 105.887 57.4808 105.936C57.5418 105.944 57.6033 105.947 57.6648 105.944C58.0119 105.927 58.3082 105.663 58.9008 105.135L58.9009 105.135L110.791 58.88C122.591 48.3609 124.775 30.7279 115.898 17.6475L115.155 16.5526C102.058 -2.74405 73.0843 -0.996724 62.4015 19.734C62.0003 20.5124 60.8707 20.4614 60.5414 19.6499C51.7726 -1.96008 23.0747 -6.3143 8.29047 11.722L7.45156 12.7455C-2.57003 24.9715 -1.98581 42.7296 8.81769 54.2705Z" fill="#A7DFFF"/>
</svg>
