<svg width="132" height="141" viewBox="0 0 132 141" fill="none" xmlns="http://www.w3.org/2000/svg">
<path d="M17.1857 63.04C13.8257 63.04 11.0373 62.3403 8.82039 60.9465C6.60629 59.5499 4.936 57.5975 3.81785 55.0836C2.69693 52.5697 2.00883 49.6411 1.75635 46.2893L6.87542 44.7655C7.13068 47.3042 7.58849 49.5996 8.25161 51.6571C8.91196 53.7119 9.95797 55.338 11.3841 56.53C12.8102 57.7219 14.7691 58.3193 17.2662 58.3193C20.0158 58.3193 22.155 57.6085 23.6837 56.187C25.2125 54.7656 25.9755 52.5061 25.9755 49.4115C25.9755 46.6709 25.3013 44.3091 23.9501 42.3318C22.5989 40.3517 20.7538 38.272 18.4121 36.09L7.48583 25.6585C5.54918 23.7807 4.12583 21.8393 3.20745 19.8343C2.29184 17.8293 1.83126 15.6335 1.83126 13.2496C1.83126 8.98517 3.10479 5.7108 5.65184 3.42924C8.19889 1.14216 11.5839 0 15.8123 0C18.0014 0 19.9742 0.279317 21.7332 0.837952C23.4895 1.39659 24.9906 2.29815 26.2391 3.53986C27.4877 4.78435 28.4671 6.39388 29.1802 8.37399C29.8932 10.3541 30.376 12.7656 30.6313 15.6058L25.6648 16.9029C25.4595 14.3143 25.0405 12.0936 24.4051 10.2407C23.767 8.38782 22.7737 6.98017 21.4253 6.015C20.0768 5.0526 18.204 4.56864 15.8095 4.56864C13.2625 4.56864 11.176 5.2296 9.54733 6.54875C7.91589 7.87067 7.10294 9.92545 7.10294 12.7159C7.10294 14.3918 7.41924 15.9128 8.05739 17.2845C8.69276 18.6562 9.82479 20.1274 11.4562 21.701L22.3797 31.9805C24.8241 34.2648 26.9355 36.8035 28.7196 39.5939C30.5009 42.3871 31.3943 45.5315 31.3943 49.0354C31.3943 52.1328 30.795 54.7213 29.5991 56.801C28.4033 58.8834 26.7358 60.4432 24.5966 61.483C22.4574 62.5201 19.988 63.04 17.1857 63.04Z" fill="white"/>
<path d="M37.0627 62.2795V18.2718H42.2567V22.763C43.7328 21.0373 45.3615 19.7292 47.1455 18.8415C48.9268 17.9537 50.7608 17.5085 52.6447 17.5085C54.1735 17.5085 55.5858 17.915 56.8842 18.7281C58.1827 19.5411 59.1122 21.0373 59.6727 23.2193C61.2015 21.3415 62.8801 19.92 64.7141 18.9549C66.5481 17.9924 68.4819 17.5085 70.5185 17.5085C71.792 17.5085 73.0017 17.8127 74.1476 18.4211C75.2935 19.0295 76.223 20.0721 76.936 21.5434C77.6491 23.0174 78.0042 25.0196 78.0042 27.5584V62.2795H72.8103V27.7132C72.8103 25.1247 72.3913 23.4101 71.5506 22.5749C70.7099 21.737 69.6528 21.3194 68.3793 21.3194C66.9531 21.3194 65.527 21.7259 64.1009 22.539C62.6748 23.352 61.3236 24.4693 60.0528 25.888C60.1027 26.1424 60.1416 26.4079 60.1666 26.6872C60.1915 26.9666 60.2054 27.2569 60.2054 27.5639V62.2795H54.9337V27.7132C54.9337 25.1247 54.5148 23.4101 53.6741 22.5749C52.8334 21.737 51.7763 21.3194 50.5055 21.3194C49.1293 21.3194 47.7282 21.7259 46.3048 22.539C44.8787 23.352 43.5275 24.4416 42.2567 25.8133V62.2795H37.0627Z" fill="white"/>
<path d="M92.3487 62.9653C90.5646 62.9653 89.0137 62.5201 87.6902 61.6324C86.3667 60.7446 85.3346 59.5527 84.5966 58.0538C83.8585 56.5576 83.4895 54.9204 83.4895 53.1422C83.4895 50.9104 83.8058 49.005 84.444 47.4314C85.0793 45.8578 86.0976 44.4502 87.4987 43.2057C88.8999 41.9612 90.7311 40.7444 92.9979 39.5525C95.262 38.3605 98.0254 37.0275 101.286 35.5563V32.434C101.286 29.7431 101.119 27.6248 100.789 26.0761C100.456 24.5274 99.8983 23.4239 99.1075 22.763C98.3168 22.1048 97.2097 21.7729 95.7836 21.7729C94.6127 21.7729 93.5695 22.0025 92.6511 22.4588C91.7355 22.9151 90.9947 23.6894 90.437 24.7818C89.8766 25.8742 89.5963 27.3842 89.5963 29.3117V30.8355L84.0971 30.7609C84.1471 26.2945 85.1015 22.9842 86.9605 20.8243C88.8194 18.6672 91.8604 17.5887 96.0888 17.5887C100.062 17.5887 102.848 18.7696 104.454 21.1286C106.058 23.4875 106.86 27.1574 106.86 32.1298V53.5239C106.86 54.2844 106.885 55.2634 106.937 56.4553C106.987 57.6473 107.04 58.7784 107.09 59.8431C107.14 60.9078 107.193 61.7209 107.243 62.2795H102.279C102.176 61.3171 102.024 60.2358 101.821 59.0438C101.616 57.8519 101.488 56.9006 101.438 56.1898C100.828 57.968 99.7457 59.5389 98.1919 60.9106C96.6382 62.2795 94.6904 62.9653 92.3487 62.9653ZM94.1078 58.2446C95.2287 58.2446 96.247 57.9653 97.1626 57.4067C98.0782 56.848 98.8939 56.176 99.607 55.3878C100.32 54.6024 100.88 53.8032 101.288 52.9901V39.2842C99.0992 40.4015 97.2264 41.4164 95.6754 42.329C94.1216 43.2417 92.862 44.1321 91.8937 44.995C90.9253 45.8578 90.2123 46.8341 89.7545 47.9264C89.2967 49.0188 89.0664 50.2993 89.0664 51.7705C89.0664 54.1046 89.5741 55.7667 90.5952 56.7568C91.6107 57.7496 92.7815 58.2446 94.1078 58.2446Z" fill="white"/>
<path d="M113.646 62.2795V0.608398H119.223V62.2795H113.646Z" fill="white"/>
<path d="M126.423 62.2795V0.608398H132V62.2795H126.423Z" fill="white"/>
<path d="M11.6865 140.314V83.1371H0V78.6459H28.8749V83.1371H17.4936V140.317H11.6865V140.314Z" fill="white"/>
<path d="M36.1526 141C34.3686 141 32.8176 140.555 31.4942 139.667C30.1707 138.779 29.1385 137.587 28.4005 136.088C27.6625 134.592 27.2935 132.955 27.2935 131.177C27.2935 128.945 27.6098 127.04 28.2479 125.466C28.8833 123.892 29.9015 122.485 31.3027 121.24C32.7039 119.996 34.5351 118.779 36.8019 117.584C39.0659 116.392 41.8294 115.059 45.0895 113.588V110.466C45.0895 107.775 44.9231 105.657 44.5929 104.108C44.2599 102.559 43.7022 101.456 42.9115 100.798C42.1207 100.139 41.0137 99.8076 39.5876 99.8076C38.4167 99.8076 37.3735 100.037 36.4551 100.493C35.5395 100.95 34.7987 101.724 34.241 102.816C33.6805 103.909 33.4003 105.419 33.4003 107.346V108.87L27.9011 108.793C27.951 104.326 28.9055 101.016 30.7644 98.8563C32.6234 96.6992 35.6643 95.6206 39.8928 95.6206C43.8659 95.6206 46.6516 96.8015 48.2581 99.1605C49.8618 101.519 50.6636 105.189 50.6636 110.162V131.556C50.6636 132.316 50.6886 133.295 50.7413 134.487C50.7913 135.679 50.844 136.81 50.8939 137.875C50.9439 138.942 50.9966 139.753 51.0465 140.311H46.0828C45.9802 139.349 45.8276 138.268 45.625 137.076C45.4197 135.884 45.2921 134.932 45.2421 134.222C44.6317 136 43.5496 137.571 41.9959 138.942C40.4421 140.314 38.4944 141 36.1526 141ZM37.909 136.279C39.0299 136.279 40.0481 136 40.9637 135.441C41.8794 134.883 42.6951 134.211 43.4081 133.422C44.1212 132.637 44.6817 131.838 45.0895 131.025V117.319C42.9004 118.436 41.0276 119.451 39.4766 120.364C37.9228 121.276 36.6632 122.167 35.6948 123.03C34.7265 123.892 34.0135 124.869 33.5557 125.961C33.0979 127.053 32.8676 128.334 32.8676 129.805C32.8676 132.139 33.3753 133.801 34.3963 134.791C35.4146 135.784 36.5855 136.279 37.909 136.279Z" fill="white"/>
<path d="M57.4475 140.314V78.6431H63.0244V140.314H57.4475Z" fill="white"/>
<path d="M69.9053 140.314V78.6431H75.4821V117.778L90.2234 96.3064H96.1055L84.9545 113.284L95.6477 140.311H89.9959L80.6761 116.403L75.4821 123.638V140.311H69.9053V140.314Z" fill="white"/>
</svg>
