<svg width="159" height="171" viewBox="0 0 159 171" fill="none" xmlns="http://www.w3.org/2000/svg">
<path d="M44 143.5V9.50008C44 4.30008 47.6667 4.66674 49.5 5.50008L159 20.5001V151.5L44 166V143.5Z" fill="#A7DFFF"/>
<path d="M33.0657 166.681L33.6314 170.641L33.0657 166.681ZM29.1896 166.538L26.5688 169.56L29.1896 166.538ZM137.682 151.736L138.248 155.696L137.682 151.736ZM142.1 150.364L139.078 147.743L142.1 150.364ZM137.682 19.5974L137.116 23.5572L137.682 19.5974ZM142.1 20.9696L145.122 18.3488L142.1 20.9696ZM32.5 8.61204L137.116 23.5572L138.248 15.6376L33.6314 0.692443L32.5 8.61204ZM138.833 25.5371V145.796H146.833V25.5371H138.833ZM137.116 147.776L32.5 162.721L33.6314 170.641L138.248 155.696L137.116 147.776ZM32.5 45.9108V8.61204H24.5V45.9108H32.5ZM32.5 162.721V127.039H24.5V162.721H32.5ZM32.5 162.721C31.9536 162.799 31.5453 162.857 31.1989 162.898C30.8494 162.938 30.6687 162.948 30.5824 162.948C30.4966 162.948 30.6318 162.937 30.8785 163.007C31.1671 163.089 31.5049 163.251 31.8104 163.516L26.5688 169.56C27.9501 170.758 29.5183 170.95 30.5968 170.948C31.5621 170.946 32.689 170.776 33.6314 170.641L32.5 162.721ZM24.5 162.721C24.5 163.673 24.4906 164.813 24.6254 165.769C24.776 166.837 25.1875 168.362 26.5688 169.56L31.8104 163.516C32.1159 163.781 32.3244 164.093 32.4463 164.367C32.5504 164.601 32.559 164.737 32.547 164.652C32.535 164.566 32.5186 164.386 32.5094 164.034C32.5003 163.686 32.5 163.273 32.5 162.721H24.5ZM138.833 145.796C138.833 146.431 138.833 146.921 138.823 147.342C138.813 147.764 138.794 148.024 138.773 148.192C138.735 148.497 138.729 148.145 139.078 147.743L145.122 152.985C146.204 151.737 146.565 150.341 146.71 149.194C146.841 148.16 146.833 146.933 146.833 145.796H138.833ZM138.248 155.696C139.372 155.535 140.588 155.369 141.594 155.093C142.709 154.788 144.039 154.232 145.122 152.985L139.078 147.743C139.426 147.341 139.776 147.296 139.479 147.378C139.316 147.423 139.061 147.478 138.645 147.547C138.23 147.617 137.744 147.686 137.116 147.776L138.248 155.696ZM137.116 23.5572C137.744 23.6469 138.23 23.7165 138.645 23.786C139.061 23.8556 139.316 23.9108 139.479 23.9556C139.776 24.037 139.426 23.9922 139.078 23.5904L145.122 18.3488C144.039 17.1011 142.709 16.5457 141.594 16.2402C140.588 15.9645 139.372 15.7983 138.248 15.6376L137.116 23.5572ZM146.833 25.5371C146.833 24.4008 146.841 23.1735 146.71 22.1389C146.565 20.9925 146.204 19.5965 145.122 18.3488L139.078 23.5904C138.729 23.1886 138.735 22.8358 138.773 23.1414C138.794 23.3095 138.813 23.5698 138.823 23.9915C138.833 24.4122 138.833 24.9028 138.833 25.5371H146.833ZM33.6314 0.692443C32.689 0.557822 31.5621 0.387331 30.5968 0.385598C29.5183 0.383661 27.9501 0.575324 26.5688 1.7733L31.8104 7.81693C31.5049 8.08187 31.1671 8.24428 30.8785 8.32611C30.6317 8.39607 30.4966 8.38543 30.5824 8.38558C30.6687 8.38574 30.8494 8.39504 31.1989 8.43567C31.5453 8.47594 31.9536 8.53398 32.5 8.61204L33.6314 0.692443ZM32.5 8.61204C32.5 8.06005 32.5003 7.64769 32.5094 7.2991C32.5186 6.94732 32.535 6.76719 32.547 6.68172C32.559 6.5967 32.5504 6.73202 32.4463 6.96641C32.3244 7.24055 32.1159 7.55199 31.8104 7.81693L26.5688 1.7733C25.1875 2.97127 24.776 4.49664 24.6254 5.56457C24.4906 6.52047 24.5 7.66013 24.5 8.61204H32.5Z" fill="black"/>
<path d="M102 85.6666L105.123 83.1678L107.122 85.6666L105.123 88.1654L102 85.6666ZM4 89.6666C1.79086 89.6666 0 87.8757 0 85.6666C0 83.4574 1.79086 81.6666 4 81.6666V89.6666ZM72.4568 42.3345L105.123 83.1678L98.8765 88.1654L66.2099 47.332L72.4568 42.3345ZM105.123 88.1654L72.4568 128.999L66.2099 124.001L98.8765 83.1678L105.123 88.1654ZM102 89.6666H4V81.6666H102V89.6666Z" fill="black"/>
</svg>
