<svg width="13" height="12" viewBox="0 0 13 12" fill="none" xmlns="http://www.w3.org/2000/svg">
<path d="M5.10119 2.11306C5.69396 0.704355 5.99034 0 6.5 0C7.00966 0 7.30604 0.704355 7.89881 2.11307L7.92641 2.17866C8.26129 2.97451 8.42873 3.37244 8.76999 3.61431C9.11124 3.85617 9.55921 3.89441 10.4551 3.9709L10.6171 3.98473C12.0834 4.10992 12.8166 4.17251 12.9735 4.61716C13.1303 5.06182 12.5859 5.53403 11.4969 6.47845L11.1335 6.79365C10.5822 7.27174 10.3066 7.51078 10.1782 7.82408C10.1542 7.88252 10.1343 7.9424 10.1185 8.00332C10.0341 8.32993 10.1148 8.67671 10.2762 9.37027L10.3265 9.58615C10.6231 10.8608 10.7714 11.4981 10.5125 11.773C10.4157 11.8757 10.2899 11.9496 10.1502 11.986C9.77626 12.0833 9.24538 11.6709 8.18363 10.8461C7.48645 10.3046 7.13786 10.0338 6.73763 9.97287C6.58021 9.94891 6.41979 9.94891 6.26236 9.97287C5.86214 10.0338 5.51355 10.3046 4.81636 10.8461C3.75462 11.6709 3.22374 12.0833 2.84982 11.986C2.71009 11.9496 2.58432 11.8757 2.48754 11.773C2.22855 11.4981 2.37688 10.8608 2.67354 9.58615L2.72379 9.37027C2.88521 8.67671 2.96592 8.32993 2.88148 8.00332C2.86573 7.9424 2.84581 7.88252 2.82184 7.82408C2.69338 7.51078 2.41776 7.27174 1.86652 6.79365L1.50308 6.47845C0.414136 5.53403 -0.130336 5.06182 0.0265414 4.61716C0.183419 4.17251 0.916575 4.10992 2.38289 3.98473L2.54486 3.9709C3.44079 3.89441 3.88876 3.85617 4.23001 3.61431C4.57127 3.37244 4.73871 2.97451 5.07359 2.17866L5.10119 2.11306Z" fill="white"/>
</svg>
