<svg width="16" height="16" viewBox="0 0 16 16" fill="none" xmlns="http://www.w3.org/2000/svg">
<path fill-rule="evenodd" clip-rule="evenodd" d="M1.86915 3.33337C1.33325 4.26158 1.33325 5.50773 1.33325 8.00004C1.33325 10.4924 1.33325 11.7385 1.86915 12.6667C2.22022 13.2748 2.72517 13.7797 3.33325 14.1308C4.26145 14.6667 5.50761 14.6667 7.99992 14.6667C10.4922 14.6667 11.7384 14.6667 12.6666 14.1308C13.2747 13.7797 13.7796 13.2748 14.1307 12.6667C14.6666 11.7385 14.6666 10.4924 14.6666 8.00004C14.6666 5.87255 14.6666 4.6531 14.3333 3.76433V11.3334C13.693 11.3334 13.0789 11.079 12.6261 10.6263L12.125 10.1252L12.1249 10.125C12.0839 10.084 12.0634 10.0635 12.0456 10.0466C11.2733 9.31131 10.0599 9.31131 9.28754 10.0466C9.26977 10.0635 9.24928 10.084 9.20834 10.125L9.20831 10.125L9.20814 10.1252L9.13271 10.2006C9.05433 10.279 9.01514 10.3182 8.98362 10.3449C8.49651 10.7575 7.75271 10.6143 7.4537 10.0502C7.43436 10.0137 7.41252 9.96278 7.36886 9.8609L7.33325 9.77782C7.18272 9.42657 7.10745 9.25095 7.03332 9.12925C6.41925 8.12125 5.07037 7.86148 4.12587 8.56933C4.01184 8.65479 3.87673 8.78989 3.60652 9.0601L3.60652 9.06011L3.60651 9.06011L2.33325 10.3334V2.68762C2.15819 2.88612 2.00256 3.1023 1.86915 3.33337Z" fill="white"/>
<path d="M2.33325 8.00004C2.33325 6.73548 2.33421 5.85392 2.39616 5.17043C2.45686 4.50069 2.56974 4.11991 2.73518 3.83337C2.99848 3.37732 3.37719 2.9986 3.83325 2.7353C4.11979 2.56987 4.50056 2.45698 5.17031 2.39628C5.8538 2.33433 6.73536 2.33337 7.99992 2.33337C9.26448 2.33337 10.146 2.33433 10.8295 2.39628C11.4993 2.45698 11.8801 2.56987 12.1666 2.7353C12.6226 2.9986 13.0014 3.37732 13.2647 3.83337C13.4301 4.11991 13.543 4.50069 13.6037 5.17043C13.6656 5.85392 13.6666 6.73548 13.6666 8.00004C13.6666 9.2646 13.6656 10.1462 13.6037 10.8297C13.543 11.4994 13.4301 11.8802 13.2647 12.1667C13.0014 12.6228 12.6226 13.0015 12.1666 13.2648C11.8801 13.4302 11.4993 13.5431 10.8295 13.6038C10.146 13.6657 9.26448 13.6667 7.99992 13.6667C6.73536 13.6667 5.8538 13.6657 5.17031 13.6038C4.50056 13.5431 4.11979 13.4302 3.83325 13.2648C3.37719 13.0015 2.99848 12.6228 2.73518 12.1667C2.56974 11.8802 2.45686 11.4994 2.39616 10.8297C2.33421 10.1462 2.33325 9.2646 2.33325 8.00004Z" stroke="white" stroke-width="2"/>
<circle cx="10.0001" cy="5.99996" r="1.33333" fill="white"/>
</svg>
