<svg width="17" height="16" viewBox="0 0 17 16" fill="none" xmlns="http://www.w3.org/2000/svg">
<path d="M2.125 2V1H1.125V2H2.125ZM8.52297 9.39487C8.92514 9.77338 9.55802 9.75421 9.93653 9.35203C10.3151 8.94986 10.2959 8.31698 9.8937 7.93847L8.52297 9.39487ZM3.125 7.33333V2H1.125V7.33333H3.125ZM2.125 3H7.79167V1H2.125V3ZM1.43964 2.7282L8.52297 9.39487L9.8937 7.93847L2.81036 1.2718L1.43964 2.7282Z" fill="white"/>
<path d="M2.83325 9.99996V9.99996C2.83325 10.3095 2.83325 10.4643 2.84467 10.5948C2.97156 12.0451 4.12144 13.195 5.57178 13.3219C5.70227 13.3333 5.85704 13.3333 6.16659 13.3333H8.83325C11.0194 13.3333 12.1125 13.3333 12.8873 12.7907C13.174 12.59 13.4233 12.3407 13.624 12.054C14.1666 11.2792 14.1666 10.1861 14.1666 7.99996V6.20829C14.1666 5.70514 14.1666 5.45356 14.1365 5.24263C13.948 3.92248 12.9107 2.88521 11.5906 2.69674C11.3797 2.66663 11.1281 2.66663 10.6249 2.66663V2.66663" stroke="white" stroke-width="2" stroke-linecap="round"/>
</svg>
