<svg width="13" height="13" viewBox="0 0 13 13" fill="none" xmlns="http://www.w3.org/2000/svg">
<path fill-rule="evenodd" clip-rule="evenodd" d="M13 6.5C13 10.0899 10.0899 13 6.5 13C2.91015 13 0 10.0899 0 6.5C0 2.91015 2.91015 0 6.5 0C10.0899 0 13 2.91015 13 6.5ZM7.22232 3.61116C7.22232 4.01003 6.89897 4.33338 6.50009 4.33338C6.10122 4.33338 5.77787 4.01003 5.77787 3.61116C5.77787 3.21229 6.10122 2.88894 6.50009 2.88894C6.89897 2.88894 7.22232 3.21229 7.22232 3.61116ZM7.5 10.1111V5.77779H5.5V10.1111H7.5Z" fill="white"/>
</svg>
