<svg width="18" height="18" viewBox="0 0 18 18" fill="none" xmlns="http://www.w3.org/2000/svg">
<path d="M7.5 14.25L6.79289 13.5429L6.08579 14.25L6.79289 14.9571L7.5 14.25ZM9.79289 10.5429L6.79289 13.5429L8.20711 14.9571L11.2071 11.9571L9.79289 10.5429ZM6.79289 14.9571L9.79289 17.9571L11.2071 16.5429L8.20711 13.5429L6.79289 14.9571Z" fill="white"/>
<path d="M13.5466 6.375C14.0074 7.1731 14.25 8.07843 14.25 9C14.25 9.92157 14.0074 10.8269 13.5466 11.625C13.0858 12.4231 12.4231 13.0858 11.625 13.5466C10.8269 14.0074 9.92157 14.25 9 14.25" stroke="white" stroke-width="2" stroke-linecap="round"/>
<path d="M10.5 3.75L11.2071 4.45711L11.9142 3.75L11.2071 3.04289L10.5 3.75ZM8.20711 7.45711L11.2071 4.45711L9.79289 3.04289L6.79289 6.04289L8.20711 7.45711ZM11.2071 3.04289L8.20711 0.0428934L6.79289 1.45711L9.79289 4.45711L11.2071 3.04289Z" fill="white"/>
<path d="M4.45337 11.625C3.99258 10.8269 3.75 9.92157 3.75 9C3.75 8.07843 3.99258 7.1731 4.45337 6.375C4.91415 5.5769 5.5769 4.91415 6.375 4.45337C7.1731 3.99258 8.07843 3.75 9 3.75" stroke="white" stroke-width="2" stroke-linecap="round"/>
</svg>
