<svg width="13" height="13" viewBox="0 0 13 13" fill="none" xmlns="http://www.w3.org/2000/svg">
<circle cx="6.5" cy="6.5" r="6.5" fill="white"/>
<path d="M7.16541 8.40935H5.637C5.637 8.07241 5.66144 7.77901 5.71031 7.52914C5.76295 7.27549 5.84943 7.04834 5.96975 6.84769C6.09007 6.64326 6.25175 6.44828 6.45478 6.26278C6.6315 6.10756 6.78566 5.9618 6.91726 5.82551C7.04885 5.68544 7.15037 5.54157 7.22181 5.39393C7.29325 5.24628 7.32897 5.08538 7.32897 4.91123C7.32897 4.70301 7.29701 4.53265 7.23309 4.40014C7.17293 4.26385 7.08269 4.16164 6.96237 4.09349C6.84582 4.02156 6.69918 3.98559 6.52246 3.98559C6.37582 3.98559 6.23859 4.01967 6.11075 4.08781C5.98291 4.15217 5.87951 4.25439 5.80055 4.39446C5.72159 4.53454 5.67835 4.71815 5.67083 4.9453H3.8999C3.91118 4.40393 4.03338 3.96099 4.2665 3.61647C4.49961 3.26818 4.81169 3.01263 5.20272 2.84984C5.59752 2.68326 6.03743 2.59998 6.52246 2.59998C7.06013 2.59998 7.52073 2.68516 7.90424 2.85552C8.29151 3.02588 8.58667 3.27764 8.78971 3.6108C8.9965 3.94395 9.0999 4.35093 9.0999 4.83173C9.0999 5.1611 9.03786 5.45071 8.91378 5.70058C8.78971 5.94666 8.62427 6.1776 8.41747 6.39339C8.21068 6.6054 7.98132 6.82687 7.7294 7.0578C7.51509 7.25088 7.36845 7.45153 7.28949 7.65975C7.21053 7.86419 7.16917 8.11405 7.16541 8.40935ZM5.43396 10.1471C5.43396 9.8934 5.5242 9.6795 5.70467 9.50535C5.88891 9.3312 6.12767 9.24413 6.42094 9.24413C6.71422 9.24413 6.9511 9.3312 7.13157 9.50535C7.31205 9.6795 7.40229 9.8934 7.40229 10.1471C7.40229 10.4045 7.31205 10.6203 7.13157 10.7944C6.9511 10.9648 6.71422 11.05 6.42094 11.05C6.12767 11.05 5.88891 10.9648 5.70467 10.7944C5.5242 10.6203 5.43396 10.4045 5.43396 10.1471Z" fill="black"/>
</svg>
