<svg width="34" height="34" viewBox="0 0 34 34" fill="none" xmlns="http://www.w3.org/2000/svg">
<path fill-rule="evenodd" clip-rule="evenodd" d="M23.364 23.3641C19.8492 26.8788 14.1508 26.8788 10.636 23.3641C7.12132 19.8494 7.12132 14.1509 10.636 10.6362C14.1508 7.12146 19.8492 7.12146 23.364 10.6362C26.8787 14.1509 26.8787 19.8494 23.364 23.3641ZM12.4038 21.5963C11.818 21.0105 11.818 20.0608 12.4038 19.475L14.8787 17.0001L12.4038 14.5253C11.818 13.9395 11.818 12.9897 12.4038 12.4039C12.9896 11.8182 13.9393 11.8182 14.5251 12.4039L17 14.8788L19.4749 12.4039C20.0607 11.8182 21.0104 11.8182 21.5962 12.4039C22.182 12.9897 22.182 13.9395 21.5962 14.5253L19.1213 17.0001L21.5962 19.475C22.182 20.0608 22.182 21.0105 21.5962 21.5963C21.0104 22.1821 20.0607 22.1821 19.4749 21.5963L17 19.1215L14.5251 21.5963C13.9393 22.1821 12.9896 22.1821 12.4038 21.5963Z" fill="black"/>
</svg>
