<svg width="28" height="34" viewBox="0 0 28 34" fill="none" xmlns="http://www.w3.org/2000/svg">
<path d="M14 31.5L14.937 32.6713L14 33.4209L13.063 32.6713L14 31.5ZM12.5 1.5C12.5 0.671573 13.1716 -1.5894e-07 14 -1.49061e-07C14.8284 -1.39182e-07 15.5 0.671574 15.5 1.5L12.5 1.5ZM27.437 22.6713L14.937 32.6713L13.063 30.3287L25.563 20.3287L27.437 22.6713ZM13.063 32.6713L0.562958 22.6713L2.43704 20.3287L14.937 30.3287L13.063 32.6713ZM12.5 31.5L12.5 1.5L15.5 1.5L15.5 31.5L12.5 31.5Z" fill="white"/>
</svg>
