<svg width="22" height="22" viewBox="0 0 22 22" fill="none" xmlns="http://www.w3.org/2000/svg">
<path fill-rule="evenodd" clip-rule="evenodd" d="M12.8559 2.45908C12.9093 2.59158 12.9257 2.7548 12.9583 3.08124C13.02 3.69847 13.0509 4.00709 13.155 4.19074C13.3811 4.58951 13.8494 4.78348 14.2912 4.66139C14.4947 4.60515 14.7348 4.40876 15.2149 4.01595L15.2149 4.01595C15.4688 3.80821 15.5957 3.70435 15.7272 3.64846C16.0092 3.52861 16.3305 3.54464 16.5992 3.69195C16.7245 3.76064 16.8405 3.87663 17.0724 4.1086L17.8914 4.92761C18.1234 5.15959 18.2394 5.27558 18.3081 5.40087C18.4554 5.66951 18.4714 5.99085 18.3516 6.27281C18.2957 6.40431 18.1918 6.53126 17.9841 6.78516L17.9841 6.78518C17.5913 7.26528 17.3949 7.50534 17.3386 7.70884C17.2166 8.15068 17.4105 8.61895 17.8093 8.84506C17.9929 8.9492 18.3016 8.98006 18.9188 9.04179C19.2453 9.07443 19.4085 9.09075 19.541 9.14422C19.8251 9.25886 20.041 9.49741 20.1268 9.79152C20.1668 9.92869 20.1668 10.0927 20.1668 10.4208V11.5791C20.1668 11.9071 20.1668 12.0711 20.1268 12.2082C20.041 12.5024 19.8251 12.741 19.5409 12.8557C19.4085 12.9091 19.2453 12.9254 18.9189 12.958C18.3019 13.0197 17.9934 13.0506 17.8098 13.1547C17.4109 13.3808 17.2168 13.8492 17.339 14.2911C17.3953 14.4945 17.5916 14.7345 17.9842 15.2144L17.9842 15.2144C18.1919 15.4682 18.2957 15.5951 18.3516 15.7265C18.4715 16.0085 18.4555 16.33 18.3081 16.5987C18.2394 16.7239 18.1235 16.8398 17.8916 17.0717L17.8916 17.0717L17.0725 17.8908L17.0725 17.8908C16.8405 18.1228 16.7245 18.2388 16.5992 18.3075C16.3306 18.4548 16.0092 18.4708 15.7273 18.351C15.5958 18.2951 15.4688 18.1912 15.2149 17.9835L15.2149 17.9835C14.7348 17.5907 14.4948 17.3943 14.2913 17.338C13.8494 17.216 13.3812 17.4099 13.1551 17.8087C13.0509 17.9923 13.0201 18.301 12.9583 18.9184C12.9257 19.245 12.9093 19.4083 12.8558 19.5409C12.7412 19.8249 12.5027 20.0407 12.2087 20.1265C12.0714 20.1666 11.9073 20.1666 11.5792 20.1666H10.4211C10.093 20.1666 9.92893 20.1666 9.79176 20.1266C9.49765 20.0408 9.2591 19.8249 9.14446 19.5408C9.091 19.4083 9.07467 19.245 9.04203 18.9186C8.9803 18.3013 8.94944 17.9927 8.84529 17.809C8.61919 17.4103 8.15093 17.2163 7.7091 17.3384C7.50559 17.3946 7.26552 17.591 6.7854 17.9839C6.53147 18.1916 6.40451 18.2955 6.273 18.3514C5.99104 18.4712 5.66972 18.4552 5.40108 18.3079C5.2758 18.2392 5.1598 18.1232 4.92783 17.8913L4.9278 17.8912L4.10882 17.0722L4.10881 17.0722C3.87683 16.8403 3.76084 16.7243 3.69214 16.599C3.54484 16.3303 3.52882 16.009 3.64865 15.727C3.70454 15.5955 3.80842 15.4686 4.01617 15.2147C4.40899 14.7346 4.60539 14.4945 4.66162 14.291C4.78371 13.8492 4.58975 13.3809 4.19098 13.1548C4.00733 13.0506 3.69871 13.0198 3.08148 12.9581L3.08145 12.958C2.75503 12.9254 2.59182 12.9091 2.45932 12.8556C2.1752 12.741 1.95931 12.5024 1.87351 12.2083C1.8335 12.0711 1.8335 11.9071 1.8335 11.579V10.4209C1.8335 10.0927 1.8335 9.92865 1.87353 9.79144C1.95934 9.49739 2.17518 9.25889 2.45924 9.14425C2.59177 9.09076 2.75505 9.07443 3.08159 9.04178C3.69902 8.98003 4.00774 8.94916 4.19145 8.84496C4.59009 8.61886 4.78401 8.1507 4.66201 7.70894C4.60578 7.50536 4.4093 7.26521 4.01633 6.78492C3.80847 6.53087 3.70454 6.40384 3.64865 6.27228C3.52888 5.99038 3.5449 5.66915 3.69212 5.40057C3.76084 5.27522 3.87688 5.15917 4.10897 4.92708L4.92785 4.10821L4.92785 4.1082C5.15984 3.87621 5.27583 3.76022 5.40113 3.69152C5.66976 3.54423 5.99109 3.5282 6.27304 3.64803C6.40455 3.70392 6.53154 3.80782 6.78551 4.01562L6.78551 4.01562C7.26555 4.40837 7.50556 4.60475 7.70899 4.66099C8.15091 4.78317 8.61931 4.58915 8.84541 4.19027C8.94949 4.00666 8.98034 3.69814 9.04204 3.08112L9.04204 3.0811C9.07468 2.75478 9.09099 2.59162 9.14442 2.45916C9.25906 2.17497 9.49767 1.95903 9.79186 1.87324C9.92898 1.83325 10.093 1.83325 10.4209 1.83325H11.5793C11.9074 1.83325 12.0714 1.83325 12.2086 1.87326C12.5027 1.95906 12.7412 2.17495 12.8559 2.45908ZM11.0002 14.6666C13.0252 14.6666 14.6668 13.025 14.6668 10.9999C14.6668 8.97487 13.0252 7.33325 11.0002 7.33325C8.97512 7.33325 7.3335 8.97487 7.3335 10.9999C7.3335 13.025 8.97512 14.6666 11.0002 14.6666Z" fill="black"/>
</svg>
