<svg width="38" height="38" viewBox="0 0 38 38" fill="none" xmlns="http://www.w3.org/2000/svg">
<path fill-rule="evenodd" clip-rule="evenodd" d="M33.25 19C33.25 26.8701 26.8701 33.25 19 33.25C11.1299 33.25 4.75 26.8701 4.75 19C4.75 11.1299 11.1299 4.75 19 4.75C26.8701 4.75 33.25 11.1299 33.25 19ZM19 28.4167C18.1716 28.4167 17.5 27.7451 17.5 26.9167V20.5H11.0833C10.2549 20.5 9.58333 19.8284 9.58333 19C9.58333 18.1716 10.2549 17.5 11.0833 17.5H17.5V11.0833C17.5 10.2549 18.1716 9.58333 19 9.58333C19.8284 9.58333 20.5 10.2549 20.5 11.0833V17.5H26.9167C27.7451 17.5 28.4167 18.1716 28.4167 19C28.4167 19.8284 27.7451 20.5 26.9167 20.5H20.5V26.9167C20.5 27.7451 19.8284 28.4167 19 28.4167Z" fill="black"/>
</svg>
